<svg width="17" height="28" viewBox="0 0 17 28" fill="none" xmlns="http://www.w3.org/2000/svg">
<path d="M13.609 27.012C14.1407 27.0147 14.6612 26.8591 15.1042 26.565C15.5471 26.2709 15.8925 25.8515 16.0963 25.3604C16.3001 24.8693 16.3531 24.3286 16.2485 23.8073C16.1439 23.2859 15.8865 22.8075 15.509 22.433L6.67399 13.628L15.511 4.814C15.9833 4.30383 16.2397 3.63055 16.2263 2.93544C16.2129 2.24033 15.9308 1.57742 15.4392 1.08581C14.9476 0.594199 14.2847 0.312105 13.5896 0.298717C12.8944 0.285329 12.2212 0.541689 11.711 1.014L0.996995 11.722C0.498209 12.2238 0.218243 12.9025 0.218243 13.61C0.218243 14.3175 0.498209 14.9962 0.996995 15.498L11.708 26.209C11.956 26.4619 12.2517 26.6631 12.578 26.801C12.9044 26.9388 13.2548 27.0105 13.609 27.012V27.012Z" fill="white"/>
</svg>
