<svg xmlns="http://www.w3.org/2000/svg" width="37.685" height="34.164" viewBox="0 0 37.685 34.164">
  <path id="shopping-cart-regular" d="M36.114,4.271H9.44L8.869,1.294A1.579,1.579,0,0,0,7.328,0H.785A.793.793,0,0,0,0,.8V2.4a.793.793,0,0,0,.785.8h5.25l4.553,23.735a4.3,4.3,0,0,0-1.167,2.956,4.188,4.188,0,1,0,8.374,0,4.314,4.314,0,0,0-.562-2.135h9.5a4.314,4.314,0,0,0-.562,2.135,4.188,4.188,0,1,0,8.374,0,4.3,4.3,0,0,0-1.287-3.079l.068-.317a1.594,1.594,0,0,0-1.534-1.942H13.331l-.614-3.2H33.156a1.578,1.578,0,0,0,1.534-1.261L37.649,6.212A1.594,1.594,0,0,0,36.114,4.271ZM13.608,31.5a1.6,1.6,0,1,1,1.57-1.6A1.588,1.588,0,0,1,13.608,31.5Zm16.749,0a1.6,1.6,0,1,1,1.57-1.6A1.588,1.588,0,0,1,30.357,31.5ZM31.891,18.15H12.1L10.054,7.473H34.166L31.891,18.15Z" fill="#000"/>
</svg>
