<svg width="233" height="47" viewBox="0 0 233 47" fill="none" xmlns="http://www.w3.org/2000/svg">
<path d="M82.2741 39.5169V39.092C82.2741 38.1973 81.5488 37.472 80.6541 37.472C79.7594 37.472 79.0341 38.1973 79.0341 39.092V39.5169C79.0341 40.4116 79.7594 41.1369 80.6541 41.1369C81.5488 41.1369 82.2741 40.4116 82.2741 39.5169Z" fill="url(#paint0_linear_1_3)"/>
<path d="M158.615 39.092V39.5169C158.615 40.1355 158.114 40.6369 157.495 40.6369C156.876 40.6369 156.375 40.1355 156.375 39.5169V39.092C156.375 38.4734 156.876 37.972 157.495 37.972C158.114 37.972 158.615 38.4734 158.615 39.092Z" fill="url(#paint1_linear_1_3)" stroke="#66ABA5"/>
<path d="M32.1929 42.7847H31.5425V39.5744H28.6504V42.7847H28V35.8234H28.6504V38.8476H31.5415V35.8234H32.1919L32.1929 42.7847Z" fill="#DC8D70"/>
<path d="M40.289 42.7844H37.181V35.8231H40.289V36.5564H37.8304V38.8473H40.1431V39.4893H37.8304V42.1424H40.288L40.289 42.7844Z" fill="#DC8D70"/>
<path d="M48.457 42.7856L47.8066 40.5859H45.5658L44.9145 42.7856H44.2641L46.433 35.7305H46.9395L49.1074 42.7856H48.457ZM47.5139 39.8552L46.8635 37.6554C46.7879 37.3105 46.6914 36.9735 46.5748 36.6474C46.5029 36.9222 46.4299 37.2895 46.358 37.6554L45.7796 39.8552H47.5139Z" fill="#DC8D70"/>
<path d="M53.3002 42.7844V35.8231H53.9506V42.0538H56.4082V42.7844H53.3002Z" fill="#DC8D70"/>
<path d="M62.5533 42.7845H61.8989V36.5551H60.1676V35.8219H64.2876V36.5551H62.5533V42.7845Z" fill="#DC8D70"/>
<path d="M72.7451 42.7844H72.0948V39.5741H69.2026V42.7844H68.5522V35.8231H69.2026V38.8473H72.0938V35.8231H72.7441L72.7451 42.7844Z" fill="#DC8D70"/>
<path d="M93.0573 42.7845H92.407L91.323 38.1115C91.2247 37.8548 91.1751 37.5724 91.1782 37.2871C91.1337 37.1091 91.1095 36.9241 91.1062 36.7375C91.0439 37.2059 90.9473 37.6659 90.8175 38.1115L89.7326 42.7845H89.0822L87.6366 35.8206H88.287L89.1541 40.1276C89.299 40.7697 89.3709 41.3193 89.4429 41.7764C89.5043 41.1876 89.6009 40.6055 89.7316 40.0351L90.7446 35.8206H91.3949L92.408 40.1276C92.5539 40.6613 92.6507 41.2146 92.6967 41.7764C92.7686 41.318 92.8415 40.7684 92.9854 40.1276L93.8525 35.8206H94.5029L93.0573 42.7845Z" fill="#DC8D70"/>
<path d="M101.949 42.7844H98.9095V35.8231H101.949V36.5564H99.5629V38.8473H101.804V39.4893H99.5629V42.0576H101.949V42.7844Z" fill="#DC8D70"/>
<path d="M106.647 42.7844V35.8231H107.298V42.0538H109.755V42.7844H106.647Z" fill="#DC8D70"/>
<path d="M114.166 42.7844V35.8231H114.816V42.0538H117.202V42.7844H114.166Z" fill="#DC8D70"/>
<path d="M125.948 42.7844H125.225L122.186 36.9198C122.244 37.559 122.268 38.2026 122.258 38.846V42.7844H121.679V35.8231H122.403L125.442 41.6878V35.8231H126.02V42.7844H125.948Z" fill="#DC8D70"/>
<path d="M134.044 42.7844H130.936V35.8231H134.044V36.5564H131.587V38.8473H133.899V39.4893H131.587V42.0576H134.044V42.7844Z" fill="#DC8D70"/>
<path d="M141.85 40.9546C141.867 41.2328 141.829 41.512 141.741 41.7676C141.653 42.0233 141.516 42.2476 141.344 42.421C140.93 42.8188 140.417 43.0139 139.898 42.9707C139.383 42.9975 138.868 42.9043 138.379 42.6958V41.8714C138.596 41.9626 138.885 42.0551 139.102 42.1462C139.363 42.2219 139.63 42.2526 139.897 42.2374C140.225 42.2674 140.553 42.1716 140.837 41.9626C140.938 41.8696 141.018 41.7444 141.069 41.5996C141.12 41.4548 141.139 41.2957 141.126 41.1382C141.122 40.912 141.072 40.6909 140.981 40.4961C140.909 40.3125 140.764 40.2213 140.62 40.0377C140.475 39.9465 140.186 39.7629 139.824 39.5792C139.427 39.3892 139.06 39.11 138.74 38.7548C138.493 38.4027 138.363 37.9421 138.379 37.4707C138.363 37.2184 138.401 36.9654 138.491 36.7391C138.58 36.5127 138.716 36.3216 138.885 36.1865C139.269 35.8604 139.725 35.6996 140.186 35.7281C140.708 35.6983 141.228 35.8236 141.706 36.0941L141.489 36.8273C141.084 36.5761 140.638 36.4507 140.188 36.4613C139.906 36.4411 139.627 36.5375 139.393 36.7361C139.299 36.8165 139.223 36.9262 139.172 37.0547C139.122 37.1831 139.098 37.326 139.104 37.4694C139.087 37.6876 139.111 37.9079 139.176 38.1115C139.248 38.2951 139.393 38.3863 139.538 38.5699C139.682 38.6611 139.971 38.8447 140.333 39.0283C140.78 39.2031 141.196 39.4828 141.562 39.8528C141.743 40.1741 141.843 40.5571 141.85 40.952" fill="#DC8D70"/>
<path d="M149.586 40.9546C149.602 41.2328 149.565 41.512 149.476 41.7676C149.388 42.0233 149.252 42.2476 149.079 42.421C148.665 42.8188 148.152 43.0139 147.634 42.9707C147.118 42.9975 146.603 42.9043 146.114 42.6958V41.8714C146.331 41.9626 146.621 42.0551 146.837 42.1462C147.098 42.2219 147.366 42.2526 147.633 42.2374C147.961 42.2674 148.288 42.1716 148.573 41.9626C148.674 41.8696 148.754 41.7444 148.805 41.5996C148.855 41.4548 148.875 41.2957 148.862 41.1382C148.857 40.912 148.807 40.6909 148.717 40.4961C148.645 40.3125 148.5 40.2213 148.355 40.0377C148.21 39.9465 147.921 39.7629 147.56 39.5792C147.162 39.3892 146.795 39.11 146.476 38.7548C146.228 38.4027 146.098 37.9421 146.114 37.4707C146.098 37.2184 146.137 36.9654 146.226 36.7391C146.315 36.5127 146.452 36.3216 146.621 36.1865C147.004 35.8604 147.46 35.6996 147.921 35.7281C148.444 35.6983 148.964 35.8236 149.441 36.0941L149.224 36.8273C148.82 36.5761 148.374 36.4507 147.923 36.4613C147.642 36.4411 147.363 36.5375 147.128 36.7361C147.034 36.8165 146.958 36.9262 146.908 37.0547C146.857 37.1831 146.834 37.326 146.84 37.4694C146.822 37.6876 146.847 37.9079 146.911 38.1115C146.983 38.2951 147.128 38.3863 147.273 38.5699C147.418 38.6611 147.707 38.8447 148.068 39.0283C148.515 39.2031 148.932 39.4828 149.297 39.8528C149.478 40.1741 149.579 40.5571 149.586 40.952" fill="#DC8D70"/>
<path d="M164.405 35.8231H165.995C166.548 35.7894 167.098 35.9479 167.586 36.2816C167.754 36.4167 167.891 36.6077 167.98 36.8341C168.069 37.0604 168.108 37.3135 168.092 37.5657C168.106 37.7504 168.087 37.9366 168.037 38.1109C167.987 38.2852 167.907 38.4433 167.803 38.5738C167.592 38.8615 167.313 39.0544 167.008 39.1234V39.2145C167.875 39.3982 168.237 39.9478 168.237 40.8634C168.253 41.1417 168.216 41.4208 168.127 41.6765C168.039 41.9321 167.903 42.1564 167.73 42.3299C167.339 42.7143 166.852 42.9091 166.357 42.8795H164.405V35.8231ZM165.055 38.7548H166.139C166.49 38.783 166.841 38.6879 167.152 38.48C167.25 38.368 167.327 38.2298 167.377 38.0755C167.427 37.9211 167.45 37.7545 167.443 37.5877C167.436 37.4209 167.4 37.2582 167.337 37.1113C167.274 36.9644 167.186 36.8372 167.08 36.7387C166.746 36.5219 166.37 36.4267 165.996 36.4639H165.056L165.055 38.7548ZM165.055 39.4881V42.1424H166.212C166.574 42.1898 166.937 42.0587 167.225 41.7764C167.345 41.6586 167.441 41.5051 167.505 41.3294C167.568 41.1536 167.596 40.961 167.587 40.7684C167.596 40.5885 167.568 40.4087 167.504 40.2475C167.441 40.0863 167.344 39.9495 167.225 39.8515C166.891 39.6346 166.515 39.5395 166.141 39.5767H165.057L165.055 39.4881Z" fill="#DC8D70"/>
<path d="M175.965 42.7844H172.857V35.8231H175.965V36.5564H173.508V38.7561H175.82V39.4893H173.508V42.0576H175.965V42.7844Z" fill="#DC8D70"/>
<path d="M184.138 42.7856L183.488 40.5859H181.247L180.597 42.7856H179.946L182.115 35.7305H182.622L184.788 42.7856H184.138ZM183.271 39.8539L182.621 37.6542C182.545 37.3092 182.448 36.9722 182.332 36.6461C182.26 36.9209 182.187 37.2882 182.115 37.6542L181.465 39.8539H183.271Z" fill="#DC8D70"/>
<path d="M193.174 35.8231V40.3176C193.186 40.6715 193.14 41.0247 193.041 41.3557C192.941 41.6867 192.79 41.9888 192.596 42.2438C192.379 42.4824 192.127 42.6624 191.853 42.7728C191.58 42.8832 191.291 42.9217 191.006 42.8859C190.726 42.9062 190.446 42.8514 190.185 42.7251C189.923 42.5987 189.686 42.4037 189.488 42.1528C189.29 41.902 189.136 41.6009 189.037 41.2693C188.937 40.9378 188.894 40.5832 188.91 40.229V35.8231H189.56V40.4049C189.558 40.9009 189.685 41.384 189.922 41.779C190.227 42.0929 190.612 42.2558 191.006 42.2374C191.397 42.2401 191.778 42.079 192.09 41.779C192.349 41.3996 192.479 40.9056 192.451 40.4049V35.8231H193.174Z" fill="#DC8D70"/>
<path d="M199.825 42.7845H199.175V36.5551H197.441V35.8219H201.561V36.5551H199.826L199.825 42.7845Z" fill="#DC8D70"/>
<path d="M207.267 39.3045L208.787 35.8219H209.437L207.63 40.0364V42.7845H206.98V40.1289L205.1 35.8219H205.824L207.267 39.3045Z" fill="#DC8D70"/>
<path d="M25.1754 27.1001V27.2425C24.4525 27.1796 23.7264 27.156 23.0007 27.1718C22.275 27.1573 21.549 27.1809 20.826 27.2425V27.1001C21.1323 27.0229 21.3991 26.8443 21.578 26.5966C21.757 26.349 21.8363 26.0488 21.8014 25.7506C21.8014 24.827 21.8761 22.0572 21.8761 17.5835H8.375C8.375 22.0622 8.37501 24.8986 8.44963 25.7506C8.41481 26.0488 8.49407 26.349 8.67304 26.5966C8.85201 26.8443 9.11882 27.0229 9.42503 27.1001V27.2425C8.70199 27.1822 7.97606 27.1586 7.25035 27.1718C6.49707 27.146 5.74297 27.1937 5 27.3141V27.1011C5.30621 27.0239 5.57302 26.8452 5.75199 26.5976C5.93096 26.35 6.01022 26.0498 5.9754 25.7516C5.9754 24.828 6.05003 21.9875 6.05003 17.3715C6.05003 12.7556 6.05003 9.84345 5.9754 8.99151C6.01022 8.69327 5.93096 8.39309 5.75199 8.14547C5.57302 7.89785 5.30621 7.7192 5 7.64195V7.49863C5.74825 7.56011 6.49944 7.5837 7.25035 7.5693C7.97606 7.58246 8.70199 7.55887 9.42503 7.49863V7.64096C9.1241 7.70163 8.8577 7.86595 8.67747 8.10207C8.49725 8.33819 8.41605 8.62927 8.44963 8.91886C8.44963 9.7708 8.375 12.4022 8.375 16.5893H21.7237C21.7237 12.3993 21.7237 9.77179 21.649 8.99052C21.6839 8.69228 21.6046 8.3921 21.4256 8.14448C21.2467 7.89685 20.9798 7.7182 20.6736 7.64096V7.49863C21.3967 7.55887 22.1226 7.58246 22.8483 7.5693C23.574 7.58376 24.3 7.56017 25.023 7.49863V7.64096C24.7221 7.70163 24.4557 7.86595 24.2754 8.10207C24.0952 8.33819 24.014 8.62927 24.0476 8.91886C24.0476 9.84246 23.973 12.6829 23.973 17.2989C23.973 21.9149 23.973 24.7553 24.0476 25.6789C24.0597 25.996 24.174 26.302 24.375 26.5558C24.576 26.8097 24.8542 26.9993 25.1722 27.0992" fill="#1D2D5A"/>
<path d="M52.251 7.64094C51.4498 7.92933 50.7668 8.45234 50.3013 9.13382C49.0263 10.6964 45.8016 14.8157 43.4767 17.9398C43.4767 22.1298 43.4766 24.829 43.5513 25.6809C43.5165 25.9791 43.5957 26.2793 43.7747 26.5269C43.9537 26.7746 44.2205 26.9532 44.5267 27.0305V27.1728C43.8036 27.1125 43.0777 27.089 42.352 27.1021C41.6263 27.0877 40.9003 27.1113 40.1773 27.1728V27.0275C40.4835 26.9502 40.7503 26.7716 40.9293 26.524C41.1083 26.2763 41.1875 25.9762 41.1527 25.6779C41.1527 24.826 41.2273 22.3398 41.2273 18.0792C38.5271 14.3858 36.0518 11.19 34.552 9.27316C34.0854 8.54145 33.4084 7.95076 32.6001 7.57028V7.42796C33.4252 7.49862 34.4752 7.49862 35.15 7.49862C35.9005 7.49862 37.3247 7.49862 38.1498 7.42796V7.57028C37.2501 7.85392 37.0251 8.28089 37.5496 9.13282C38.6007 10.6954 40.4748 13.1805 43.2496 16.8739C45.6492 13.6781 47.8996 10.766 48.875 9.27515C49.5498 8.27989 49.3248 7.92558 48.4997 7.64194V7.49862C49.173 7.55763 49.8492 7.58122 50.5252 7.56928C51.1011 7.58118 51.6773 7.55758 52.25 7.49862L52.251 7.64094Z" fill="#1D2D5A"/>
<path d="M64.7011 27.3131C62.9763 27.3131 61.3261 27.3131 59.5256 27.1708V27.0275C60.1258 26.9568 60.501 26.6722 60.501 25.7496C60.501 24.827 60.5746 21.9865 60.5746 17.3735C60.5746 12.7605 60.5746 9.84542 60.5 8.99348C60.5 8.06988 60.0501 7.78624 59.5246 7.71557V7.57027C60.7249 7.4996 62.4497 7.4996 64.6244 7.4996C71.675 7.4996 77.2993 9.98774 77.2993 17.0869C77.2993 21.8452 74.1461 27.3131 64.699 27.3131M64.2534 8.20922H63.0509C63.0509 10.2684 62.9763 13.0382 62.9763 17.3705C62.9763 22.1289 62.9763 24.827 63.0509 26.4612H64.4005C71.3754 26.4612 74.5959 23.1231 74.5959 17.0162C74.6705 12.1873 71.9682 8.21022 64.246 8.21022" fill="#1D2D5A"/>
<path d="M103.248 26.9578C102.669 27.3123 101.987 27.4863 101.298 27.4555C98.4478 27.4555 97.3977 24.828 96.4234 22.2005C95.5983 20.1413 94.4736 18.2195 92.7446 17.9398H91.4014C91.4014 21.9875 91.4014 24.8996 91.476 25.7516C91.4412 26.0498 91.5204 26.35 91.6994 26.5976C91.8784 26.8452 92.1452 27.0239 92.4514 27.1011V27.2435C91.7031 27.182 90.9519 27.1584 90.201 27.1728C89.4753 27.1596 88.7494 27.1832 88.0264 27.2435V27.1011C88.3326 27.0239 88.5994 26.8452 88.7783 26.5976C88.9573 26.35 89.0366 26.0498 89.0018 25.7516C89.0018 24.828 89.0764 21.9875 89.0764 17.3715C89.0764 12.7555 89.0764 9.84343 89.0018 8.99149C89.0018 8.06789 88.5519 7.78425 88.0264 7.71358V7.57027C89.2267 7.4996 90.9515 7.4996 92.3011 7.4996C98.0757 7.4996 100.701 9.70111 100.701 12.4002C100.701 15.4537 98.1514 17.2292 94.4757 17.7268C96.2762 18.2951 97.8507 20.4966 99.1257 22.6275C101.3 26.1109 102.051 26.8882 103.251 26.6752L103.248 26.9578ZM91.476 17.0152C91.8512 17.0152 92.1508 17.0859 92.4514 17.0859C96.3519 17.0859 98.0011 15.0954 98.0011 12.3982C98.0011 9.48613 96.0513 8.20822 91.5506 8.20822C91.476 9.77077 91.476 13.1089 91.476 17.0142" fill="#1D2D5A"/>
<path d="M149.228 24.7563C148.928 25.3246 148.402 26.3895 148.103 27.1002H138.277C137.352 27.0781 136.426 27.1017 135.503 27.1708V27.0275C135.809 26.9503 136.076 26.7716 136.255 26.524C136.434 26.2764 136.513 25.9762 136.478 25.6779C136.478 24.7543 136.553 21.9139 136.553 17.2979C136.553 12.6819 136.553 9.76979 136.478 8.91785C136.513 8.61961 136.434 8.31943 136.255 8.07181C136.076 7.82418 135.809 7.64553 135.503 7.56829V7.42796C136.251 7.48943 137.002 7.51302 137.753 7.49862C138.479 7.51178 139.205 7.48819 139.928 7.42796V7.57028C139.627 7.63095 139.36 7.79528 139.18 8.03139C139 8.26751 138.919 8.55859 138.952 8.84818C138.952 9.77178 138.878 12.6122 138.878 17.2282C138.878 21.8442 138.878 24.3304 138.952 26.3189H141.054C144.504 26.3189 146.979 26.0352 149.005 24.5433L149.228 24.7563Z" fill="#1D2D5A"/>
<path d="M165.128 27.6684C159.053 27.6684 153.803 23.6207 153.803 17.3706C153.803 11.1204 159.053 7.07267 165.128 7.07267C171.203 7.07267 176.453 11.1204 176.453 17.3706C176.379 23.6197 171.198 27.6684 165.128 27.6684M165.128 7.99626C160.028 7.99626 156.503 11.4796 156.503 17.3706C156.503 23.1938 160.028 26.7448 165.128 26.7448C170.228 26.7448 173.753 23.1938 173.753 17.3706C173.753 11.5473 170.153 7.99626 165.128 7.99626Z" fill="#1D2D5A"/>
<path d="M204.653 18.7908C204.352 18.8515 204.086 19.0158 203.906 19.2519C203.726 19.488 203.644 19.7791 203.678 20.0687C203.678 20.9923 203.603 22.1995 203.603 23.3351C202.588 24.6905 201.236 25.7882 199.666 26.5313C198.096 27.2744 196.357 27.64 194.603 27.5958C188.377 27.5958 182.902 23.5481 182.902 17.2979C182.902 11.0477 188.303 7 194.603 7C197.756 7 200.978 7.9236 202.853 9.76979L203.003 12.3266L202.778 12.3973C201.278 9.48515 198.279 8.06492 194.603 8.06492C189.728 8.06492 185.603 11.6867 185.603 17.4392C185.603 23.1211 189.728 26.8135 194.603 26.8135C197.008 26.8512 199.358 26.1264 201.278 24.7544C201.278 23.4048 201.278 21.061 201.204 20.1384C201.239 19.8401 201.159 19.5399 200.98 19.2923C200.801 19.0447 200.535 18.866 200.228 18.7888V18.6465C200.951 18.7067 201.677 18.7303 202.403 18.7171C203.129 18.7316 203.855 18.708 204.578 18.6465L204.653 18.7908Z" fill="#1D2D5A"/>
<path d="M229.93 7.64094C229.129 7.92933 228.446 8.45234 227.98 9.13382C226.705 10.6964 223.481 14.8157 221.156 17.9398C221.156 22.1298 221.156 24.829 221.23 25.6809C221.195 25.9791 221.275 26.2793 221.454 26.5269C221.633 26.7746 221.899 26.9532 222.206 27.0305V27.1728C221.483 27.1125 220.757 27.089 220.031 27.1021C219.305 27.0877 218.579 27.1113 217.856 27.1728V27.0275C218.163 26.9502 218.429 26.7716 218.608 26.524C218.787 26.2763 218.867 25.9762 218.832 25.6779C218.832 24.826 218.906 22.3398 218.906 18.0792C216.206 14.3858 213.731 11.19 212.231 9.27316C211.764 8.54145 211.087 7.95076 210.279 7.57028V7.42796C211.104 7.49862 212.154 7.49862 212.829 7.49862C213.58 7.49862 215.004 7.49862 215.829 7.42796V7.57028C214.929 7.85392 214.704 8.28089 215.229 9.13282C216.28 10.6954 218.154 13.1805 220.929 16.8739C223.328 13.6781 225.579 10.766 226.554 9.27515C227.229 8.27989 227.004 7.92558 226.179 7.64194V7.49862C226.852 7.55763 227.528 7.58122 228.204 7.56928C228.78 7.58118 229.356 7.55758 229.929 7.49862L229.93 7.64094Z" fill="#1D2D5A"/>
<path d="M128.005 15.4827C127.404 13.9547 126.347 11.9201 124.497 9.56478C124.48 9.53251 124.458 9.50342 124.431 9.47883C123.12 7.82191 121.416 6.00813 119.201 4.0998L119.193 4.09406C119.184 4.0872 119.175 4.08097 119.166 4.0754C119.158 4.06999 119.15 4.06497 119.141 4.06038C119.133 4.05573 119.124 4.05167 119.114 4.04822C119.104 4.04822 119.095 4.04037 119.085 4.0375L119.058 4.03176C119.048 4.02956 119.037 4.02809 119.027 4.02737H118.969C118.959 4.02827 118.949 4.02993 118.94 4.03235C118.93 4.03373 118.92 4.03587 118.911 4.03876C118.901 4.04148 118.892 4.04484 118.883 4.04881C118.873 4.05213 118.864 4.05619 118.855 4.06097C118.846 4.06529 118.838 4.07031 118.83 4.07599C118.821 4.08156 118.812 4.08779 118.803 4.09465L118.795 4.10039C116.58 6.0083 114.877 7.82394 113.565 9.48019C113.538 9.5044 113.516 9.53325 113.499 9.56537C111.649 11.9207 110.592 13.9548 109.992 15.4833C108.909 18.2354 109.021 19.9576 109.04 20.1592C109.045 22.0782 109.618 23.9538 110.689 25.5554C111.76 27.157 113.282 28.4147 115.068 29.1738C115.141 29.2067 115.181 29.2239 115.184 29.2253C115.196 29.2297 115.207 29.2331 115.219 29.2354C117.64 30.2179 120.356 30.2179 122.776 29.2354C122.788 29.2331 122.8 29.2297 122.811 29.2253C122.811 29.2253 122.857 29.2067 122.927 29.1738C124.713 28.4144 126.234 27.1566 127.305 25.555C128.376 23.9535 128.949 22.078 128.954 20.1593C128.974 19.9576 129.087 18.2354 128.005 15.4827ZM124.421 16.4007C124.105 15.8723 123.761 15.3481 123.388 14.8353C122.283 13.3116 120.979 11.9391 119.509 10.7538C120.591 9.94347 121.77 9.26679 123.019 8.73889L123.029 8.75037C123.828 9.67247 124.359 10.7906 124.566 11.9862C124.812 13.4528 124.762 14.9528 124.421 16.4007ZM122.741 28.588C122.535 28.6777 122.325 28.7603 122.111 28.8357C122.084 28.8451 122.055 28.8469 122.027 28.8409C121.999 28.8349 121.973 28.8212 121.953 28.8016C121.932 28.7819 121.918 28.757 121.911 28.7296C121.904 28.7023 121.905 28.6735 121.914 28.6467C122.152 27.8812 121.854 26.9998 121.453 26.4714C120.987 25.8527 120.406 25.3299 119.951 24.9434C119.793 24.8095 119.634 24.6784 119.475 24.546C120.771 23.4719 122.093 22.352 123.088 20.9098C123.71 20.0072 124.214 19.0302 124.587 18.0025C125.506 19.8384 126.024 21.6579 126.024 23.2104C126.025 26.7764 123.428 28.2579 122.741 28.588ZM118.997 29.3635C118.504 29.363 118.012 29.3242 117.525 29.2475C117.511 29.2396 117.497 29.2329 117.482 29.2274C117.054 29.0799 116.781 28.8235 116.67 28.4655C116.497 27.9069 116.739 27.2274 117.033 26.8321C117.463 26.2592 118.013 25.7684 118.444 25.4C118.626 25.2446 118.811 25.0921 118.994 24.9389C119.179 25.0921 119.363 25.2446 119.546 25.4C119.977 25.7659 120.526 26.2592 120.956 26.8321C121.254 27.2274 121.495 27.9062 121.319 28.4655C121.207 28.8235 120.934 29.0798 120.508 29.2274C120.493 29.2329 120.478 29.2396 120.464 29.2475C119.979 29.324 119.489 29.3628 118.997 29.3635V29.3635ZM115.303 28.6102C114.715 28.3302 111.971 26.8308 111.971 23.2072C111.971 21.6548 112.489 19.8353 113.407 17.9993C113.781 19.027 114.284 20.0039 114.907 20.9065C115.901 22.3487 117.224 23.4686 118.519 24.5427C118.36 24.6745 118.201 24.8062 118.043 24.9402C117.589 25.3268 117.007 25.8495 116.541 26.4682C116.141 26.9995 115.842 27.878 116.081 28.6435C116.089 28.6703 116.09 28.6988 116.083 28.726C116.076 28.7532 116.062 28.7781 116.042 28.7977C116.021 28.8173 115.996 28.8311 115.968 28.8374C115.94 28.8436 115.912 28.8422 115.885 28.8333C115.688 28.767 115.494 28.6911 115.303 28.6102V28.6102ZM122.579 20.5639C121.61 21.968 120.343 23.029 118.997 24.1441C117.653 23.0298 116.385 21.9688 115.417 20.5639C114.713 19.544 114.169 18.4254 113.804 17.2456C115.125 14.9039 116.888 12.8331 118.997 11.1448C121.107 12.8329 122.87 14.9037 124.192 17.2456C123.826 18.4252 123.282 19.5438 122.579 20.5639V20.5639ZM114.966 8.75028L114.976 8.7388C116.225 9.26642 117.404 9.9426 118.487 10.7523C117.016 11.9376 115.712 13.3101 114.608 14.8339C114.235 15.348 113.89 15.8723 113.572 16.4006C113.23 14.9527 113.181 13.4527 113.426 11.986C113.635 10.7902 114.167 9.67217 114.966 8.75028V8.75028ZM118.997 4.7403C120.268 5.84007 121.469 7.01543 122.594 8.2598C121.315 8.81682 120.108 9.52144 118.997 10.3589C117.887 9.52004 116.68 8.81421 115.401 8.25625C116.526 7.01197 117.727 5.83654 118.997 4.7365V4.7403ZM109.657 20.145V20.1135C109.657 20.1028 109.497 18.4013 110.587 15.6531C111.045 14.5003 111.771 13.0496 112.921 11.384C112.512 13.3022 112.587 15.2903 113.138 17.1734C112.001 19.2885 111.353 21.4303 111.353 23.2078C111.339 24.3161 111.607 25.4103 112.134 26.3892C110.54 24.6905 109.655 22.4602 109.657 20.145ZM128.34 20.1099V20.1421C128.341 22.4572 127.456 24.6875 125.862 26.3861C126.389 25.407 126.657 24.313 126.643 23.2046C126.643 21.4274 125.995 19.2857 124.858 17.1704C125.411 15.2875 125.486 13.2992 125.076 11.3811C126.225 13.0466 126.952 14.4974 127.409 15.6502C128.5 18.4013 128.341 20.0969 128.34 20.1095L128.34 20.1099Z" fill="#66ABA5"/>
<path d="M118.997 30C117.698 30.0016 116.41 29.7505 115.209 29.261C115.197 29.2589 115.185 29.2553 115.174 29.2503C115.133 29.2349 115.094 29.2174 115.056 29.1981C113.265 28.4381 111.738 27.1774 110.664 25.5712C109.59 23.9651 109.015 22.0838 109.012 20.1595C108.995 19.9726 108.88 18.234 109.964 15.4729C110.724 13.5396 111.906 11.5467 113.476 9.54822C113.495 9.51437 113.519 9.48424 113.549 9.45941C114.985 7.642 116.746 5.83033 118.778 4.07961L118.786 4.07387C118.796 4.06601 118.806 4.05885 118.817 4.05243L118.824 4.04812C118.83 4.04377 118.837 4.03993 118.843 4.03664C118.854 4.031 118.864 4.0262 118.875 4.02229L118.904 4.01157L118.936 4.00515H118.943C118.961 4.0011 118.981 3.99943 119 4.00017C119.021 4.00022 119.042 4.00237 119.063 4.00659L119.094 4.01376C119.105 4.01684 119.116 4.02068 119.126 4.02525C119.136 4.02881 119.146 4.03313 119.156 4.03816C119.166 4.04301 119.175 4.04866 119.183 4.05505C119.194 4.06051 119.203 4.06699 119.212 4.07438L119.22 4.08079C121.252 5.8294 123.011 7.64107 124.454 9.46414C124.484 9.48952 124.508 9.52012 124.526 9.55438C126.095 11.55 127.276 13.5435 128.035 15.474C129.124 18.2352 129.005 19.9737 128.988 20.1635C128.984 22.0878 128.409 23.9688 127.335 25.5745C126.26 27.1803 124.733 28.4407 122.942 29.2002C122.874 29.2324 122.831 29.2503 122.825 29.2524C122.815 29.2568 122.804 29.2601 122.793 29.2625C121.589 29.7518 120.299 30.0024 118.997 30V30ZM118.997 4.05353C118.983 4.05315 118.968 4.0546 118.953 4.05783H118.941L118.915 4.06425C118.908 4.06541 118.901 4.06757 118.895 4.07066C118.885 4.07457 118.875 4.07911 118.865 4.08426L118.85 4.0927L118.842 4.09768C118.833 4.10266 118.825 4.1083 118.817 4.11456L118.81 4.11954C116.778 5.86908 115.022 7.67779 113.586 9.49588C113.56 9.51924 113.539 9.54687 113.523 9.57751C111.953 11.5768 110.774 13.5652 110.016 15.4929C108.936 18.2419 109.051 19.9672 109.068 20.1573C109.071 22.0714 109.642 23.9427 110.71 25.5403C111.779 27.138 113.297 28.3921 115.079 29.1481C115.148 29.1803 115.189 29.1975 115.193 29.1997L115.221 29.2076H115.23C117.644 30.1872 120.352 30.1872 122.765 29.2076H122.775L122.801 29.2004C122.84 29.1852 122.878 29.168 122.915 29.1489C124.697 28.3932 126.215 27.1393 127.284 25.5419C128.352 23.9445 128.924 22.0734 128.928 20.1594C128.945 19.9689 129.059 18.2418 127.978 15.4928C127.222 13.5666 126.043 11.5781 124.475 9.58241C124.459 9.55132 124.438 9.5234 124.411 9.5001C122.968 7.67661 121.209 5.86756 119.182 4.12106L119.174 4.11532C119.167 4.11034 119.16 4.1046 119.151 4.09954C119.144 4.09399 119.136 4.08918 119.128 4.08518L119.11 4.07674H119.103C119.095 4.07674 119.086 4.07033 119.078 4.0683C119.069 4.06578 119.061 4.06386 119.052 4.06256C119.035 4.05848 119.017 4.05655 119 4.05682L118.997 4.05353ZM118.997 29.3906C118.503 29.3905 118.009 29.352 117.521 29.2753H117.511C117.499 29.2678 117.486 29.2618 117.472 29.2574C117.037 29.1063 116.758 28.8443 116.644 28.477C116.467 27.9091 116.713 27.2195 117.014 26.8193C117.445 26.2464 117.997 25.7516 118.429 25.3872C118.565 25.2697 118.704 25.1552 118.843 25.0399L118.997 24.911L119.12 25.0123C119.27 25.1362 119.419 25.2608 119.567 25.3868C120.002 25.7535 120.55 26.2461 120.981 26.8189C121.283 27.2199 121.529 27.9095 121.352 28.4766C121.237 28.8439 120.958 29.1067 120.523 29.2564C120.509 29.2613 120.496 29.2676 120.483 29.2751H120.474C119.986 29.352 119.492 29.3907 118.997 29.3909V29.3906ZM117.535 29.2217C118.504 29.3735 119.492 29.3735 120.461 29.2217C120.475 29.2133 120.49 29.2064 120.505 29.2009C120.922 29.0574 121.189 28.8064 121.298 28.4569C121.469 27.9082 121.231 27.2397 120.935 26.8486C120.507 26.2801 119.959 25.7881 119.529 25.4229C119.384 25.2969 119.232 25.1731 119.083 25.0491L118.996 24.9775L118.878 25.0759C118.739 25.1912 118.6 25.3064 118.463 25.4225C118.033 25.7884 117.485 26.2818 117.057 26.8492C116.767 27.2388 116.525 27.9083 116.694 28.4575C116.803 28.807 117.07 29.0576 117.488 29.2022C117.504 29.2071 117.52 29.2137 117.535 29.2219V29.2217ZM115.938 28.873C115.917 28.8729 115.896 28.8692 115.877 28.8622C115.682 28.7907 115.486 28.7187 115.296 28.6352C114.737 28.3696 111.948 26.8579 111.948 23.2083C111.948 21.6759 112.446 19.8707 113.388 17.9882L113.416 17.9302L113.439 17.9911C113.811 19.0168 114.314 19.9918 114.935 20.8925C115.963 22.3833 117.393 23.5698 118.542 24.5226L118.567 24.5434L118.397 24.6869C118.286 24.7786 118.179 24.8709 118.067 24.9633C117.613 25.3484 117.032 25.8718 116.568 26.4866C116.172 27.0122 115.877 27.8808 116.112 28.6347C116.123 28.6673 116.124 28.7023 116.116 28.7356C116.107 28.7689 116.09 28.7993 116.064 28.8231C116.048 28.8394 116.028 28.8523 116.006 28.8609C115.984 28.8695 115.961 28.8737 115.938 28.8732L115.938 28.873ZM115.316 28.5865C115.507 28.6682 115.702 28.7441 115.896 28.8121C115.918 28.8198 115.942 28.8214 115.964 28.8166C115.987 28.8118 116.007 28.8008 116.024 28.7849C116.041 28.7687 116.053 28.7479 116.059 28.7251C116.065 28.7023 116.064 28.6783 116.057 28.656C115.816 27.8783 116.117 26.9905 116.521 26.4534C116.988 25.8333 117.572 25.3077 118.027 24.9211L118.358 24.6439L118.479 24.5437C117.331 23.5928 115.911 22.4106 114.886 20.924C114.275 20.0374 113.777 19.0791 113.406 18.0713C112.483 19.9238 111.998 21.6989 111.998 23.2077C111.998 26.8237 114.759 28.321 115.313 28.5853L115.316 28.5865ZM122.059 28.873C122.013 28.8731 121.969 28.8556 121.937 28.8243C121.913 28.8015 121.895 28.7727 121.887 28.7409C121.878 28.709 121.878 28.6755 121.887 28.6438V28.636C122.122 27.8798 121.828 27.0112 121.431 26.4878C120.966 25.8716 120.386 25.35 119.932 24.964C119.812 24.8616 119.69 24.7607 119.569 24.659L119.433 24.5451L119.458 24.5244C120.608 23.572 122.037 22.3862 123.066 20.8943C123.687 19.9934 124.19 19.0185 124.562 17.9928L124.585 17.932L124.613 17.99C125.556 19.8725 126.053 21.6777 126.053 23.21C126.053 26.7553 123.528 28.2433 122.754 28.6156C122.536 28.7079 122.326 28.7918 122.121 28.8641C122.102 28.8699 122.081 28.8725 122.061 28.872L122.059 28.873ZM119.521 24.5422L119.607 24.6138C119.729 24.7151 119.851 24.8164 119.97 24.9202C120.425 25.3069 121.009 25.831 121.476 26.4519C121.881 26.9882 122.181 27.8768 121.941 28.6516C121.933 28.6744 121.932 28.6989 121.938 28.7222C121.943 28.7456 121.956 28.7668 121.974 28.7834C121.99 28.7991 122.011 28.8099 122.033 28.8146C122.056 28.8192 122.079 28.8176 122.101 28.8099C122.304 28.7383 122.516 28.6546 122.729 28.5629C123.496 28.1941 125.994 26.7197 125.994 23.2075C125.994 21.6987 125.509 19.9235 124.59 18.0697C124.218 19.0773 123.721 20.0355 123.11 20.9226C122.086 22.4101 120.666 23.5915 119.521 24.5424L119.521 24.5422ZM112.266 26.5683L112.113 26.4115C110.514 24.7066 109.627 22.4683 109.629 20.1451V20.1165C109.629 20.1072 109.469 18.3915 110.559 15.6433C111.11 14.2555 111.896 12.8177 112.896 11.3691L112.977 11.2517L112.947 11.3905C112.539 13.3041 112.614 15.2872 113.164 17.1656V17.1765L113.159 17.1865C112.014 19.3224 111.382 21.4614 111.382 23.2079C111.368 24.3115 111.635 25.4008 112.158 26.3765L112.266 26.5683ZM112.862 11.5173C111.961 12.8146 111.207 14.2053 110.613 15.6648C109.525 18.4015 109.682 20.095 109.684 20.11C109.685 20.1212 109.685 20.1325 109.684 20.1438C109.682 22.3785 110.51 24.5365 112.009 26.2109C111.547 25.2745 111.313 24.2448 111.325 23.2035C111.325 21.4513 111.958 19.3074 113.107 17.1657C112.572 15.3288 112.488 13.3925 112.862 11.5173V11.5173ZM125.733 26.5682L125.837 26.3763C126.36 25.4006 126.627 24.3113 126.614 23.2077C126.614 21.4612 125.982 19.3224 124.832 17.1864L124.827 17.1763V17.1656C125.379 15.2874 125.454 13.3041 125.045 11.3906L125.015 11.2517L125.096 11.3692C126.096 12.8177 126.881 14.2555 127.432 15.6432C128.502 18.3427 128.37 20.0434 128.364 20.115C128.364 20.1245 128.364 20.1341 128.364 20.1437C128.367 22.467 127.481 24.7056 125.882 26.4113L125.733 26.5682ZM124.89 17.1699C126.04 19.3116 126.672 21.4547 126.672 23.2077C126.684 24.2491 126.45 25.2787 125.988 26.2151C127.486 24.5401 128.312 22.3823 128.31 20.1481C128.309 20.1366 128.309 20.1252 128.31 20.1137C128.316 20.0421 128.447 18.3544 127.381 15.667C126.786 14.208 126.032 12.8172 125.132 11.5194C125.508 13.3951 125.425 15.3322 124.89 17.1699V17.1699ZM119 24.1801L118.983 24.1651C117.705 23.1067 116.385 22.0123 115.397 20.5797C114.692 19.5586 114.147 18.4386 113.779 17.2573V17.2458L113.785 17.2357C115.11 14.8907 116.875 12.816 118.986 11.1227L119.003 11.1092L119.02 11.1227C121.132 12.8157 122.897 14.8904 124.221 17.2357L124.227 17.2458L124.224 17.2573C123.857 18.4386 123.312 19.5586 122.608 20.5798C121.619 22.0119 120.298 23.1068 119.021 24.1652L119 24.1801ZM113.833 17.2525C114.199 18.4234 114.74 19.5337 115.44 20.5461C116.419 21.9661 117.729 23.0523 118.995 24.105C120.263 23.0545 121.574 21.9661 122.55 20.5461C123.249 19.5336 123.79 18.4233 124.156 17.2525C122.839 14.9242 121.087 12.8636 118.992 11.1801C116.899 12.8646 115.149 14.9251 113.833 17.2525V17.2525ZM113.563 16.4741L113.547 16.4066C113.203 14.9557 113.154 13.4519 113.402 11.9821C113.61 10.7814 114.143 9.65852 114.945 8.73255L114.968 8.70604L114.987 8.71389C116.239 9.24148 117.42 9.91843 118.505 10.7296L118.534 10.7504L118.506 10.7726C117.037 11.9561 115.734 13.3273 114.632 14.8501C114.264 15.3566 113.917 15.8826 113.6 16.4132L113.563 16.4741ZM114.984 8.77265C114.189 9.69108 113.662 10.8045 113.456 11.9949C113.214 13.4348 113.258 14.9074 113.586 16.3307C113.894 15.8137 114.229 15.3082 114.587 14.8191C115.685 13.3022 116.982 11.9354 118.444 10.754C117.375 9.95845 116.214 9.29317 114.984 8.77265V8.77265ZM124.432 16.4738L124.397 16.4147C124.078 15.8855 123.73 15.3557 123.367 14.8516C122.264 13.3288 120.961 11.9576 119.492 10.7741L119.464 10.7519L119.493 10.7311C120.578 9.91982 121.758 9.24225 123.009 8.71347L123.029 8.70562L123.042 8.7225L123.051 8.73322C123.854 9.65908 124.387 10.7819 124.595 11.9827C124.843 13.4526 124.794 14.9563 124.45 16.4072L124.432 16.4738ZM119.553 10.754C121.015 11.9352 122.312 13.3021 123.41 14.8191C123.764 15.306 124.1 15.813 124.408 16.3271C124.737 14.904 124.781 13.4312 124.539 11.9914C124.333 10.801 123.805 9.68761 123.011 8.7691C121.782 9.29103 120.621 9.95748 119.553 10.754V10.754ZM118.997 10.3902L118.98 10.3781C117.872 9.54135 116.667 8.83777 115.39 8.28216L115.355 8.26646L115.38 8.23852C116.507 6.9933 117.709 5.81658 118.979 4.71479L118.997 4.69909L119.013 4.71488C120.284 5.816 121.486 6.99226 122.613 8.23716L122.639 8.26511L122.604 8.28089C121.327 8.83664 120.121 9.54067 119.013 10.3781L118.997 10.3902ZM115.447 8.24594C116.709 8.79878 117.9 9.4958 118.997 10.3227C120.095 9.49613 121.287 8.79914 122.548 8.24594C121.436 7.01976 120.25 5.8602 118.997 4.77347C117.745 5.86052 116.559 7.02021 115.447 8.24637L115.447 8.24594Z" fill="#66ABA5"/>
<defs>
<linearGradient id="paint0_linear_1_3" x1="-1447.19" y1="263.229" x2="-1447.09" y2="263.229" gradientUnits="userSpaceOnUse">
<stop stop-color="#66ABA5"/>
<stop offset="0.107" stop-color="#66ABA5"/>
<stop offset="0.163" stop-color="#77B3AE"/>
<stop offset="0.349" stop-color="#ABCCC9"/>
<stop offset="0.44" stop-color="#BFD6D4"/>
<stop offset="1" stop-color="#66ABA5"/>
</linearGradient>
<linearGradient id="paint1_linear_1_3" x1="-1481.45" y1="281.561" x2="-1481.34" y2="281.561" gradientUnits="userSpaceOnUse">
<stop stop-color="#66ABA5"/>
<stop offset="0.107" stop-color="#66ABA5"/>
<stop offset="0.163" stop-color="#77B3AE"/>
<stop offset="0.349" stop-color="#ABCCC9"/>
<stop offset="0.44" stop-color="#BFD6D4"/>
<stop offset="1" stop-color="#66ABA5"/>
</linearGradient>
</defs>
</svg>
