<svg xmlns="http://www.w3.org/2000/svg" width="23.002" height="23" viewBox="0 0 23.002 23">
  <g id="pen-regular" transform="translate(0)">
    <path id="pen-regular-2" data-name="pen-regular" d="M22.159,2.527,20.474.842a2.875,2.875,0,0,0-4.066,0L13.061,4.188,11.5,5.749.576,16.671.006,21.8A1.078,1.078,0,0,0,1.075,23a1.1,1.1,0,0,0,.121-.007l5.128-.566L17.252,11.5l1.561-1.561,3.347-3.346a2.875,2.875,0,0,0,0-4.066ZM5.334,20.367,2.3,20.7l.338-3.041L13.025,7.274,14.418,5.88l2.7,2.7L15.727,9.975,5.334,20.367Zm15.3-15.3L18.645,7.057l-2.7-2.7,1.989-1.989a.718.718,0,0,1,1.016,0l1.685,1.685a.72.72,0,0,1,0,1.017Z" transform="translate(0.001)"/>
  </g>
</svg>
