<svg xmlns="http://www.w3.org/2000/svg" width="21" height="21" viewBox="0 0 21 21">
  <g id="Group_73651" data-name="Group 73651" transform="translate(0.011)">
    <g id="Ellipse_209" data-name="Ellipse 209" transform="translate(-0.011)" fill="#fff" stroke="#2865ce" stroke-width="2">
      <circle cx="10.5" cy="10.5" r="10.5" stroke="none"/>
      <circle cx="10.5" cy="10.5" r="9.5" fill="none"/>
    </g>
    <path id="Path_38171" data-name="Path 38171" d="M3.15-2.97v-.915a3.182,3.182,0,0,1,.06-.675,1.821,1.821,0,0,1,.18-.487,1.887,1.887,0,0,1,.323-.42q.2-.2.5-.488.24-.225.48-.457a4.837,4.837,0,0,0,.435-.48,2.6,2.6,0,0,0,.322-.525A1.474,1.474,0,0,0,5.58-8.04a1.578,1.578,0,0,0-.128-.637,1.614,1.614,0,0,0-.338-.5,1.514,1.514,0,0,0-.5-.33,1.624,1.624,0,0,0-.623-.12A1.6,1.6,0,0,0,2.8-9.165,2.017,2.017,0,0,0,2.25-7.95L.72-8.1a3.161,3.161,0,0,1,1.087-2.047A3.343,3.343,0,0,1,4.02-10.89,3.611,3.611,0,0,1,5.2-10.7a2.829,2.829,0,0,1,.952.54,2.487,2.487,0,0,1,.637.87A2.845,2.845,0,0,1,7.02-8.115a2.762,2.762,0,0,1-.165,1,3.023,3.023,0,0,1-.465.8l-.9.93-.15.135q-.24.225-.383.383a1.381,1.381,0,0,0-.225.33,1.311,1.311,0,0,0-.113.383,3.814,3.814,0,0,0-.03.525v.66ZM2.865-.9a.952.952,0,0,1,.293-.7.952.952,0,0,1,.7-.293.952.952,0,0,1,.7.293.952.952,0,0,1,.293.7.952.952,0,0,1-.293.7.952.952,0,0,1-.7.293.952.952,0,0,1-.7-.293A.952.952,0,0,1,2.865-.9Z" transform="translate(6.989 16)" fill="#162bff" stroke="#2865ce" stroke-width="0.5"/>
  </g>
</svg>
