<svg id="Group_10" data-name="Group 10" xmlns="http://www.w3.org/2000/svg" width="153.231" height="46.91" viewBox="0 0 153.231 46.91">
  <g id="logo-navbar">
    <path id="Path_807" data-name="Path 807" d="M39.87,0l-30,42.528h31.2v3.584H0L30.4,3.584H1.694V0Z" fill="#fff"/>
    <path id="Path_808" data-name="Path 808" d="M46.377,0V30.142a22.981,22.981,0,0,0,.1,2.617,8.1,8.1,0,0,0,.5,2.617,15.245,15.245,0,0,0,1.2,2.617,9.507,9.507,0,0,0,2.392,2.617,13.677,13.677,0,0,0,4.186,2.617,13.937,13.937,0,0,0,5.083.872,19.935,19.935,0,0,0,6.379-.969,11.988,11.988,0,0,0,5.482-3.489,13.252,13.252,0,0,0,2.093-2.908,17.3,17.3,0,0,0,1.1-2.908,14.591,14.591,0,0,0,.4-3c0-.969.1-1.938.1-2.908V0h2.99V30.045a18.031,18.031,0,0,1-1.2,6.591,14.932,14.932,0,0,1-3.389,5.331,15.647,15.647,0,0,1-5.582,3.586A20.783,20.783,0,0,1,60.53,46.91c-4.585,0-8.273-.582-10.864-1.842a15.806,15.806,0,0,1-6.08-4.652,13.921,13.921,0,0,1-2.591-6.106,32.481,32.481,0,0,1-.5-6.009V0Z" transform="translate(6.568)" fill="#fff"/>
    <path id="Path_809" data-name="Path 809" d="M98.359,0a18.42,18.42,0,0,1,7.476,1.26,12.818,12.818,0,0,1,4.684,3,9,9,0,0,1,2.393,3.877,11.809,11.809,0,0,1,.7,3.877,11.668,11.668,0,0,1-.7,4.07,10.846,10.846,0,0,1-2.194,3.877,14.562,14.562,0,0,1-3.787,3,13.849,13.849,0,0,1-5.582,1.357v.291l.7.291a7.071,7.071,0,0,1,1.4.969,14.155,14.155,0,0,1,1.5,1.938c.6.872,1.4,2.132,2.492,3.683,1,1.648,2.492,3.78,4.386,6.4a17.384,17.384,0,0,0,1.793,2.423,16.287,16.287,0,0,0,1.795,1.841,8.2,8.2,0,0,0,1.994,1.163,6.711,6.711,0,0,0,2.492.388h.7c.2,0,.5-.1.7-.1v2.423a4.975,4.975,0,0,1-1.895.678,17.38,17.38,0,0,1-2.392.1,12.062,12.062,0,0,1-3.489-.485,11.086,11.086,0,0,1-2.591-1.454,8.673,8.673,0,0,1-2.094-2.132c-.7-.872-1.3-1.744-1.994-2.811l-5.382-7.753c-.8-1.26-1.5-2.229-2.093-3.1a7.679,7.679,0,0,0-1.894-2.035,8.417,8.417,0,0,0-2.292-1.163,14.217,14.217,0,0,0-3.19-.291H88.99V45.938H82.81V0ZM96.067,22.775a10.8,10.8,0,0,0,4.784-.969,10.075,10.075,0,0,0,3.488-2.423,8.451,8.451,0,0,0,2.094-3.3,9.185,9.185,0,0,0,.7-3.586,9.646,9.646,0,0,0-.8-3.877,8.739,8.739,0,0,0-2.293-3.1,10.713,10.713,0,0,0-3.588-2.035,13.98,13.98,0,0,0-4.685-.678H88.89V22.775Z" transform="translate(12.71)" fill="#fff"/>
    <path id="Path_810" data-name="Path 810" d="M131.717,0V46.112h-6.18V0Z" transform="translate(21.515)" fill="#fff"/>
  </g>
</svg>
